# xmcd
#
# Track frame offsets: 
#        150
#        10672
#        20171
#        33180
#        44024
#        58895
#        71034
#        82318
#        98418
#        110771
#        126263
#        135311
#        144718
#        155353
#
# Disc length: 2212 seconds
#
# Revision: 0
# Processed by: cddbd v1.5.1PL0 Copyright (c) Steve Scherf et al.
# Submitted via: ExactAudioCopy v0.95a3
#
DISCID=c608a20e
DTITLE=Various Artist - King Of The Road
DYEAR=2003
DGENRE=Country
TTITLE0=Roger Miller - King Of The Road
TTITLE1=Merle Travis - 16 Tons
TTITLE2=Kenny Rogers - Ruby (Don't Tage Your Love To Town)
TTITLE3=Johnny Cash - I Heard That Lonesome Whistle Blow
TTITLE4=Frankie Laine - Jezebel
TTITLE5=Merle Haggard - Okie From Muskogee
TTITLE6=Stoney Cooper and Wilma Lee - Big Midnight Special
TTITLE7=Lynn Anderson - The Devil Went Down To Georgia
TTITLE8=Leroy Van Dyke - The Auctioneer
TTITLE9=Rod Hart - C.B. Savage
TTITLE10=Webb Pierce - Honky Tonk Song
TTITLE11=Dave Dudley - Six Days On The Road
TTITLE12=Ferlin Husky - Wings Of A Dove
TTITLE13=Charley Pride - Oklahoma Morning
EXTD=
EXTT0=
EXTT1=
EXTT2=
EXTT3=
EXTT4=
EXTT5=
EXTT6=
EXTT7=
EXTT8=
EXTT9=
EXTT10=
EXTT11=
EXTT12=
EXTT13=
PLAYORDER=
